{
	"asset":{
		"generator":"Khronos glTF Blender I/O v4.0.44",
		"version":"2.0"
	},
	"scene":0,
	"scenes":[
		{
			"name":"Scene",
			"nodes":[
				13
			]
		}
	],
	"nodes":[
		{
			"name":"Bone",
			"rotation":[
				-1.1628174689803927e-07,
				-0.7103679776191711,
				-0.7038305401802063,
				1.1519631470946479e-07
			],
			"scale":[
				1,
				1,
				1.0000441074371338
			],
			"translation":[
				5.025925275958798e-08,
				-0.06478270888328552,
				0.1542445421218872
			]
		},
		{
			"name":"Bone.003",
			"rotation":[
				-0.027756914496421814,
				3.4296900714402e-13,
				-7.698651671717016e-08,
				0.9996147155761719
			],
			"translation":[
				8.881784197001252e-15,
				0.14200924336910248,
				-4.658528562906383e-10
			]
		},
		{
			"children":[
				1
			],
			"name":"Bone.002",
			"rotation":[
				-0.008687797002494335,
				2.3840871676839015e-07,
				-2.202515325677723e-08,
				0.9999622702598572
			],
			"scale":[
				1,
				0.9999998211860657,
				0.9999998807907104
			],
			"translation":[
				0,
				0.22627203166484833,
				-9.31374755097636e-10
			]
		},
		{
			"children":[
				2
			],
			"name":"Bone.001",
			"rotation":[
				-0.6360543370246887,
				1.011858444144309e-06,
				-6.268062975323119e-07,
				0.7716442346572876
			],
			"translation":[
				5.025925275958798e-08,
				-0.06478270888328552,
				0.1542445421218872
			]
		},
		{
			"name":"Bone.006",
			"rotation":[
				0.13393455743789673,
				-0.11701590567827225,
				-0.5031535625457764,
				0.8456981182098389
			],
			"scale":[
				1.0000001192092896,
				1.0000001192092896,
				1
			],
			"translation":[
				1.862645149230957e-09,
				0.058933109045028687,
				-4.598405212163925e-09
			]
		},
		{
			"children":[
				4
			],
			"name":"Bone.004",
			"rotation":[
				-0.6080006957054138,
				0.35851430892944336,
				0.43011796474456787,
				0.5628510117530823
			],
			"scale":[
				0.9999998807907104,
				0.9999999403953552,
				0.9999999403953552
			],
			"translation":[
				5.025925275958798e-08,
				-0.06478270888328552,
				0.1542445421218872
			]
		},
		{
			"name":"Bone.007",
			"rotation":[
				0.13393455743789673,
				-0.11701590567827225,
				-0.5031535625457764,
				0.8456981182098389
			],
			"scale":[
				1.0000001192092896,
				1.0000001192092896,
				1
			],
			"translation":[
				1.862645149230957e-09,
				0.058933109045028687,
				-4.598405212163925e-09
			]
		},
		{
			"children":[
				6
			],
			"name":"Bone.005",
			"rotation":[
				-0.6080006957054138,
				0.35851430892944336,
				0.43011796474456787,
				0.5628510117530823
			],
			"scale":[
				0.9999998807907104,
				0.9999999403953552,
				0.9999999403953552
			],
			"translation":[
				5.025925275958798e-08,
				-0.06478270888328552,
				0.1542445421218872
			]
		},
		{
			"name":"Bone.010",
			"rotation":[
				0.13393455743789673,
				-0.11701590567827225,
				-0.5031535625457764,
				0.8456981182098389
			],
			"scale":[
				1.0000001192092896,
				1.0000001192092896,
				1
			],
			"translation":[
				1.862645149230957e-09,
				0.058933109045028687,
				-4.598405212163925e-09
			]
		},
		{
			"children":[
				8
			],
			"name":"Bone.008",
			"rotation":[
				-0.6080006957054138,
				0.35851430892944336,
				0.43011796474456787,
				0.5628510117530823
			],
			"scale":[
				0.9999998807907104,
				0.9999999403953552,
				0.9999999403953552
			],
			"translation":[
				5.025925275958798e-08,
				-0.06478270888328552,
				0.1542445421218872
			]
		},
		{
			"name":"Bone.011",
			"rotation":[
				-0.2820413410663605,
				0.5765205025672913,
				0.43766894936561584,
				0.6297004818916321
			],
			"scale":[
				1.0000001192092896,
				1.000000238418579,
				1.0000001192092896
			],
			"translation":[
				1.4901161193847656e-08,
				0.05893305316567421,
				2.7939677238464355e-09
			]
		},
		{
			"children":[
				10
			],
			"name":"Bone.009",
			"rotation":[
				-0.5549401640892029,
				-0.29193487763404846,
				-0.4966968595981598,
				0.6000897288322449
			],
			"scale":[
				0.9999999403953552,
				0.9999999403953552,
				1
			],
			"translation":[
				5.025925275958798e-08,
				-0.06478270888328552,
				0.1542445421218872
			]
		},
		{
			"mesh":0,
			"name":"BlueTang",
			"skin":0
		},
		{
			"children":[
				12,
				0,
				3,
				5,
				7,
				9,
				11
			],
			"name":"BlueTang.001"
		}
	],
	"animations":[
		{
			"channels":[
				{
					"sampler":0,
					"target":{
						"node":0,
						"path":"translation"
					}
				},
				{
					"sampler":1,
					"target":{
						"node":0,
						"path":"rotation"
					}
				},
				{
					"sampler":2,
					"target":{
						"node":0,
						"path":"scale"
					}
				},
				{
					"sampler":3,
					"target":{
						"node":3,
						"path":"translation"
					}
				},
				{
					"sampler":4,
					"target":{
						"node":3,
						"path":"rotation"
					}
				},
				{
					"sampler":5,
					"target":{
						"node":3,
						"path":"scale"
					}
				},
				{
					"sampler":6,
					"target":{
						"node":2,
						"path":"translation"
					}
				},
				{
					"sampler":7,
					"target":{
						"node":2,
						"path":"rotation"
					}
				},
				{
					"sampler":8,
					"target":{
						"node":2,
						"path":"scale"
					}
				},
				{
					"sampler":9,
					"target":{
						"node":1,
						"path":"translation"
					}
				},
				{
					"sampler":10,
					"target":{
						"node":1,
						"path":"rotation"
					}
				},
				{
					"sampler":11,
					"target":{
						"node":1,
						"path":"scale"
					}
				},
				{
					"sampler":12,
					"target":{
						"node":5,
						"path":"translation"
					}
				},
				{
					"sampler":13,
					"target":{
						"node":5,
						"path":"rotation"
					}
				},
				{
					"sampler":14,
					"target":{
						"node":5,
						"path":"scale"
					}
				},
				{
					"sampler":15,
					"target":{
						"node":4,
						"path":"translation"
					}
				},
				{
					"sampler":16,
					"target":{
						"node":4,
						"path":"rotation"
					}
				},
				{
					"sampler":17,
					"target":{
						"node":4,
						"path":"scale"
					}
				},
				{
					"sampler":18,
					"target":{
						"node":7,
						"path":"translation"
					}
				},
				{
					"sampler":19,
					"target":{
						"node":7,
						"path":"rotation"
					}
				},
				{
					"sampler":20,
					"target":{
						"node":7,
						"path":"scale"
					}
				},
				{
					"sampler":21,
					"target":{
						"node":6,
						"path":"translation"
					}
				},
				{
					"sampler":22,
					"target":{
						"node":6,
						"path":"rotation"
					}
				},
				{
					"sampler":23,
					"target":{
						"node":6,
						"path":"scale"
					}
				},
				{
					"sampler":24,
					"target":{
						"node":9,
						"path":"translation"
					}
				},
				{
					"sampler":25,
					"target":{
						"node":9,
						"path":"rotation"
					}
				},
				{
					"sampler":26,
					"target":{
						"node":9,
						"path":"scale"
					}
				},
				{
					"sampler":27,
					"target":{
						"node":8,
						"path":"translation"
					}
				},
				{
					"sampler":28,
					"target":{
						"node":8,
						"path":"rotation"
					}
				},
				{
					"sampler":29,
					"target":{
						"node":8,
						"path":"scale"
					}
				},
				{
					"sampler":30,
					"target":{
						"node":11,
						"path":"translation"
					}
				},
				{
					"sampler":31,
					"target":{
						"node":11,
						"path":"rotation"
					}
				},
				{
					"sampler":32,
					"target":{
						"node":11,
						"path":"scale"
					}
				},
				{
					"sampler":33,
					"target":{
						"node":10,
						"path":"translation"
					}
				},
				{
					"sampler":34,
					"target":{
						"node":10,
						"path":"rotation"
					}
				},
				{
					"sampler":35,
					"target":{
						"node":10,
						"path":"scale"
					}
				}
			],
			"name":"DorySwim",
			"samplers":[
				{
					"input":19,
					"interpolation":"STEP",
					"output":20
				},
				{
					"input":21,
					"interpolation":"LINEAR",
					"output":22
				},
				{
					"input":19,
					"interpolation":"STEP",
					"output":23
				},
				{
					"input":19,
					"interpolation":"STEP",
					"output":24
				},
				{
					"input":21,
					"interpolation":"LINEAR",
					"output":25
				},
				{
					"input":19,
					"interpolation":"STEP",
					"output":26
				},
				{
					"input":19,
					"interpolation":"STEP",
					"output":27
				},
				{
					"input":21,
					"interpolation":"LINEAR",
					"output":28
				},
				{
					"input":19,
					"interpolation":"STEP",
					"output":29
				},
				{
					"input":19,
					"interpolation":"STEP",
					"output":30
				},
				{
					"input":21,
					"interpolation":"LINEAR",
					"output":31
				},
				{
					"input":19,
					"interpolation":"STEP",
					"output":32
				},
				{
					"input":19,
					"interpolation":"STEP",
					"output":33
				},
				{
					"input":21,
					"interpolation":"LINEAR",
					"output":34
				},
				{
					"input":19,
					"interpolation":"STEP",
					"output":35
				},
				{
					"input":19,
					"interpolation":"STEP",
					"output":36
				},
				{
					"input":21,
					"interpolation":"LINEAR",
					"output":37
				},
				{
					"input":19,
					"interpolation":"STEP",
					"output":38
				},
				{
					"input":19,
					"interpolation":"STEP",
					"output":39
				},
				{
					"input":21,
					"interpolation":"LINEAR",
					"output":40
				},
				{
					"input":19,
					"interpolation":"STEP",
					"output":41
				},
				{
					"input":19,
					"interpolation":"STEP",
					"output":42
				},
				{
					"input":21,
					"interpolation":"LINEAR",
					"output":43
				},
				{
					"input":19,
					"interpolation":"STEP",
					"output":44
				},
				{
					"input":19,
					"interpolation":"STEP",
					"output":45
				},
				{
					"input":21,
					"interpolation":"LINEAR",
					"output":46
				},
				{
					"input":19,
					"interpolation":"STEP",
					"output":47
				},
				{
					"input":19,
					"interpolation":"STEP",
					"output":48
				},
				{
					"input":21,
					"interpolation":"LINEAR",
					"output":49
				},
				{
					"input":19,
					"interpolation":"STEP",
					"output":50
				},
				{
					"input":19,
					"interpolation":"STEP",
					"output":51
				},
				{
					"input":21,
					"interpolation":"LINEAR",
					"output":52
				},
				{
					"input":19,
					"interpolation":"STEP",
					"output":53
				},
				{
					"input":19,
					"interpolation":"STEP",
					"output":54
				},
				{
					"input":21,
					"interpolation":"LINEAR",
					"output":55
				},
				{
					"input":19,
					"interpolation":"STEP",
					"output":56
				}
			]
		}
	],
	"materials":[
		{
			"doubleSided":true,
			"name":"DoryBlue",
			"pbrMetallicRoughness":{
				"baseColorFactor":[
					0.025625327602028847,
					0.08117159456014633,
					0.7265406847000122,
					1
				],
				"metallicFactor":0,
				"roughnessFactor":0.7636363506317139
			}
		},
		{
			"doubleSided":true,
			"name":"DoryYellow",
			"pbrMetallicRoughness":{
				"baseColorFactor":[
					0.8000000715255737,
					0.6756191253662109,
					0.036930814385414124,
					1
				],
				"metallicFactor":0,
				"roughnessFactor":0.7545454502105713
			}
		},
		{
			"doubleSided":true,
			"name":"DoryBlack",
			"pbrMetallicRoughness":{
				"baseColorFactor":[
					0.012214639224112034,
					0.011941432021558285,
					0.015943150967359543,
					1
				],
				"metallicFactor":0,
				"roughnessFactor":0.7590909004211426
			}
		}
	],
	"meshes":[
		{
			"name":"DoryMesh",
			"primitives":[
				{
					"attributes":{
						"POSITION":0,
						"NORMAL":1,
						"TEXCOORD_0":2,
						"JOINTS_0":3,
						"WEIGHTS_0":4
					},
					"indices":5,
					"material":0
				},
				{
					"attributes":{
						"POSITION":6,
						"NORMAL":7,
						"TEXCOORD_0":8,
						"JOINTS_0":9,
						"WEIGHTS_0":10
					},
					"indices":11,
					"material":1
				},
				{
					"attributes":{
						"POSITION":12,
						"NORMAL":13,
						"TEXCOORD_0":14,
						"JOINTS_0":15,
						"WEIGHTS_0":16
					},
					"indices":17,
					"material":2
				}
			]
		}
	],
	"skins":[
		{
			"inverseBindMatrices":18,
			"joints":[
				0,
				3,
				2,
				1,
				5,
				4,
				7,
				6,
				9,
				8,
				11,
				10
			],
			"name":"BlueTang.001"
		}
	],
	"accessors":[
		{
			"bufferView":0,
			"componentType":5126,
			"count":782,
			"max":[
				0.06188584864139557,
				0.1271529197692871,
				0.3348478674888611
			],
			"min":[
				-0.06188574433326721,
				-0.17427223920822144,
				-0.39798739552497864
			],
			"type":"VEC3"
		},
		{
			"bufferView":1,
			"componentType":5126,
			"count":782,
			"type":"VEC3"
		},
		{
			"bufferView":2,
			"componentType":5126,
			"count":782,
			"type":"VEC2"
		},
		{
			"bufferView":3,
			"componentType":5121,
			"count":782,
			"type":"VEC4"
		},
		{
			"bufferView":4,
			"componentType":5126,
			"count":782,
			"type":"VEC4"
		},
		{
			"bufferView":5,
			"componentType":5123,
			"count":1332,
			"type":"SCALAR"
		},
		{
			"bufferView":6,
			"componentType":5126,
			"count":212,
			"max":[
				0.07277416437864304,
				0.09498268365859985,
				0.1232583224773407
			],
			"min":[
				-0.07277410477399826,
				-0.08790183067321777,
				-0.39798739552497864
			],
			"type":"VEC3"
		},
		{
			"bufferView":7,
			"componentType":5126,
			"count":212,
			"type":"VEC3"
		},
		{
			"bufferView":8,
			"componentType":5126,
			"count":212,
			"type":"VEC2"
		},
		{
			"bufferView":9,
			"componentType":5121,
			"count":212,
			"type":"VEC4"
		},
		{
			"bufferView":10,
			"componentType":5126,
			"count":212,
			"type":"VEC4"
		},
		{
			"bufferView":11,
			"componentType":5123,
			"count":312,
			"type":"SCALAR"
		},
		{
			"bufferView":12,
			"componentType":5126,
			"count":346,
			"max":[
				0.04143880680203438,
				0.1271529197692871,
				0.278144896030426
			],
			"min":[
				-0.0414387546479702,
				-0.15695160627365112,
				-0.39798739552497864
			],
			"type":"VEC3"
		},
		{
			"bufferView":13,
			"componentType":5126,
			"count":346,
			"type":"VEC3"
		},
		{
			"bufferView":14,
			"componentType":5126,
			"count":346,
			"type":"VEC2"
		},
		{
			"bufferView":15,
			"componentType":5121,
			"count":346,
			"type":"VEC4"
		},
		{
			"bufferView":16,
			"componentType":5126,
			"count":346,
			"type":"VEC4"
		},
		{
			"bufferView":17,
			"componentType":5123,
			"count":462,
			"type":"SCALAR"
		},
		{
			"bufferView":18,
			"componentType":5126,
			"count":12,
			"type":"MAT4"
		},
		{
			"bufferView":19,
			"componentType":5126,
			"count":2,
			"max":[
				1.6666666666666667
			],
			"min":[
				0
			],
			"type":"SCALAR"
		},
		{
			"bufferView":20,
			"componentType":5126,
			"count":2,
			"type":"VEC3"
		},
		{
			"bufferView":21,
			"componentType":5126,
			"count":41,
			"max":[
				1.6666666666666667
			],
			"min":[
				0
			],
			"type":"SCALAR"
		},
		{
			"bufferView":22,
			"componentType":5126,
			"count":41,
			"type":"VEC4"
		},
		{
			"bufferView":23,
			"componentType":5126,
			"count":2,
			"type":"VEC3"
		},
		{
			"bufferView":24,
			"componentType":5126,
			"count":2,
			"type":"VEC3"
		},
		{
			"bufferView":25,
			"componentType":5126,
			"count":41,
			"type":"VEC4"
		},
		{
			"bufferView":26,
			"componentType":5126,
			"count":2,
			"type":"VEC3"
		},
		{
			"bufferView":27,
			"componentType":5126,
			"count":2,
			"type":"VEC3"
		},
		{
			"bufferView":28,
			"componentType":5126,
			"count":41,
			"type":"VEC4"
		},
		{
			"bufferView":29,
			"componentType":5126,
			"count":2,
			"type":"VEC3"
		},
		{
			"bufferView":30,
			"componentType":5126,
			"count":2,
			"type":"VEC3"
		},
		{
			"bufferView":31,
			"componentType":5126,
			"count":41,
			"type":"VEC4"
		},
		{
			"bufferView":32,
			"componentType":5126,
			"count":2,
			"type":"VEC3"
		},
		{
			"bufferView":33,
			"componentType":5126,
			"count":2,
			"type":"VEC3"
		},
		{
			"bufferView":34,
			"componentType":5126,
			"count":41,
			"type":"VEC4"
		},
		{
			"bufferView":35,
			"componentType":5126,
			"count":2,
			"type":"VEC3"
		},
		{
			"bufferView":36,
			"componentType":5126,
			"count":2,
			"type":"VEC3"
		},
		{
			"bufferView":37,
			"componentType":5126,
			"count":41,
			"type":"VEC4"
		},
		{
			"bufferView":38,
			"componentType":5126,
			"count":2,
			"type":"VEC3"
		},
		{
			"bufferView":39,
			"componentType":5126,
			"count":2,
			"type":"VEC3"
		},
		{
			"bufferView":40,
			"componentType":5126,
			"count":41,
			"type":"VEC4"
		},
		{
			"bufferView":41,
			"componentType":5126,
			"count":2,
			"type":"VEC3"
		},
		{
			"bufferView":42,
			"componentType":5126,
			"count":2,
			"type":"VEC3"
		},
		{
			"bufferView":43,
			"componentType":5126,
			"count":41,
			"type":"VEC4"
		},
		{
			"bufferView":44,
			"componentType":5126,
			"count":2,
			"type":"VEC3"
		},
		{
			"bufferView":45,
			"componentType":5126,
			"count":2,
			"type":"VEC3"
		},
		{
			"bufferView":46,
			"componentType":5126,
			"count":41,
			"type":"VEC4"
		},
		{
			"bufferView":47,
			"componentType":5126,
			"count":2,
			"type":"VEC3"
		},
		{
			"bufferView":48,
			"componentType":5126,
			"count":2,
			"type":"VEC3"
		},
		{
			"bufferView":49,
			"componentType":5126,
			"count":41,
			"type":"VEC4"
		},
		{
			"bufferView":50,
			"componentType":5126,
			"count":2,
			"type":"VEC3"
		},
		{
			"bufferView":51,
			"componentType":5126,
			"count":2,
			"type":"VEC3"
		},
		{
			"bufferView":52,
			"componentType":5126,
			"count":41,
			"type":"VEC4"
		},
		{
			"bufferView":53,
			"componentType":5126,
			"count":2,
			"type":"VEC3"
		},
		{
			"bufferView":54,
			"componentType":5126,
			"count":2,
			"type":"VEC3"
		},
		{
			"bufferView":55,
			"componentType":5126,
			"count":41,
			"type":"VEC4"
		},
		{
			"bufferView":56,
			"componentType":5126,
			"count":2,
			"type":"VEC3"
		}
	],
	"bufferViews":[
		{
			"buffer":0,
			"byteLength":9384,
			"byteOffset":0,
			"target":34962
		},
		{
			"buffer":0,
			"byteLength":9384,
			"byteOffset":9384,
			"target":34962
		},
		{
			"buffer":0,
			"byteLength":6256,
			"byteOffset":18768,
			"target":34962
		},
		{
			"buffer":0,
			"byteLength":3128,
			"byteOffset":25024,
			"target":34962
		},
		{
			"buffer":0,
			"byteLength":12512,
			"byteOffset":28152,
			"target":34962
		},
		{
			"buffer":0,
			"byteLength":2664,
			"byteOffset":40664,
			"target":34963
		},
		{
			"buffer":0,
			"byteLength":2544,
			"byteOffset":43328,
			"target":34962
		},
		{
			"buffer":0,
			"byteLength":2544,
			"byteOffset":45872,
			"target":34962
		},
		{
			"buffer":0,
			"byteLength":1696,
			"byteOffset":48416,
			"target":34962
		},
		{
			"buffer":0,
			"byteLength":848,
			"byteOffset":50112,
			"target":34962
		},
		{
			"buffer":0,
			"byteLength":3392,
			"byteOffset":50960,
			"target":34962
		},
		{
			"buffer":0,
			"byteLength":624,
			"byteOffset":54352,
			"target":34963
		},
		{
			"buffer":0,
			"byteLength":4152,
			"byteOffset":54976,
			"target":34962
		},
		{
			"buffer":0,
			"byteLength":4152,
			"byteOffset":59128,
			"target":34962
		},
		{
			"buffer":0,
			"byteLength":2768,
			"byteOffset":63280,
			"target":34962
		},
		{
			"buffer":0,
			"byteLength":1384,
			"byteOffset":66048,
			"target":34962
		},
		{
			"buffer":0,
			"byteLength":5536,
			"byteOffset":67432,
			"target":34962
		},
		{
			"buffer":0,
			"byteLength":924,
			"byteOffset":72968,
			"target":34963
		},
		{
			"buffer":0,
			"byteLength":768,
			"byteOffset":73892
		},
		{
			"buffer":0,
			"byteLength":8,
			"byteOffset":74660
		},
		{
			"buffer":0,
			"byteLength":24,
			"byteOffset":74668
		},
		{
			"buffer":0,
			"byteLength":164,
			"byteOffset":74692
		},
		{
			"buffer":0,
			"byteLength":656,
			"byteOffset":74856
		},
		{
			"buffer":0,
			"byteLength":24,
			"byteOffset":75512
		},
		{
			"buffer":0,
			"byteLength":24,
			"byteOffset":75536
		},
		{
			"buffer":0,
			"byteLength":656,
			"byteOffset":75560
		},
		{
			"buffer":0,
			"byteLength":24,
			"byteOffset":76216
		},
		{
			"buffer":0,
			"byteLength":24,
			"byteOffset":76240
		},
		{
			"buffer":0,
			"byteLength":656,
			"byteOffset":76264
		},
		{
			"buffer":0,
			"byteLength":24,
			"byteOffset":76920
		},
		{
			"buffer":0,
			"byteLength":24,
			"byteOffset":76944
		},
		{
			"buffer":0,
			"byteLength":656,
			"byteOffset":76968
		},
		{
			"buffer":0,
			"byteLength":24,
			"byteOffset":77624
		},
		{
			"buffer":0,
			"byteLength":24,
			"byteOffset":77648
		},
		{
			"buffer":0,
			"byteLength":656,
			"byteOffset":77672
		},
		{
			"buffer":0,
			"byteLength":24,
			"byteOffset":78328
		},
		{
			"buffer":0,
			"byteLength":24,
			"byteOffset":78352
		},
		{
			"buffer":0,
			"byteLength":656,
			"byteOffset":78376
		},
		{
			"buffer":0,
			"byteLength":24,
			"byteOffset":79032
		},
		{
			"buffer":0,
			"byteLength":24,
			"byteOffset":79056
		},
		{
			"buffer":0,
			"byteLength":656,
			"byteOffset":79080
		},
		{
			"buffer":0,
			"byteLength":24,
			"byteOffset":79736
		},
		{
			"buffer":0,
			"byteLength":24,
			"byteOffset":79760
		},
		{
			"buffer":0,
			"byteLength":656,
			"byteOffset":79784
		},
		{
			"buffer":0,
			"byteLength":24,
			"byteOffset":80440
		},
		{
			"buffer":0,
			"byteLength":24,
			"byteOffset":80464
		},
		{
			"buffer":0,
			"byteLength":656,
			"byteOffset":80488
		},
		{
			"buffer":0,
			"byteLength":24,
			"byteOffset":81144
		},
		{
			"buffer":0,
			"byteLength":24,
			"byteOffset":81168
		},
		{
			"buffer":0,
			"byteLength":656,
			"byteOffset":81192
		},
		{
			"buffer":0,
			"byteLength":24,
			"byteOffset":81848
		},
		{
			"buffer":0,
			"byteLength":24,
			"byteOffset":81872
		},
		{
			"buffer":0,
			"byteLength":656,
			"byteOffset":81896
		},
		{
			"buffer":0,
			"byteLength":24,
			"byteOffset":82552
		},
		{
			"buffer":0,
			"byteLength":24,
			"byteOffset":82576
		},
		{
			"buffer":0,
			"byteLength":656,
			"byteOffset":82600
		},
		{
			"buffer":0,
			"byteLength":24,
			"byteOffset":83256
		}
	],
	"buffers":[
		{
			"byteLength":83280,
			"uri":"Bluetang.bin"
		}
	]
}
