{
	"asset":{
		"generator":"Khronos glTF Blender I/O v4.0.44",
		"version":"2.0"
	},
	"extensionsUsed":[
		"KHR_materials_specular",
		"KHR_materials_ior"
	],
	"scene":0,
	"scenes":[
		{
			"name":"Scene",
			"nodes":[
				9
			]
		}
	],
	"nodes":[
		{
			"name":"Bone",
			"rotation":[
				-9.550760893262122e-08,
				-0.750580906867981,
				-0.6607785820960999,
				1.3608281790311594e-07
			],
			"scale":[
				1,
				1,
				0.9999999403953552
			],
			"translation":[
				2.2351741790771484e-08,
				-0.000897526741027832,
				0.07270205020904541
			]
		},
		{
			"name":"Bone.003",
			"rotation":[
				-0.032020360231399536,
				-3.574374716208695e-07,
				-2.3004427873729583e-07,
				0.9994872212409973
			],
			"scale":[
				1,
				0.9999999403953552,
				1
			],
			"translation":[
				-2.187682923704415e-09,
				0.12459228187799454,
				9.55778318711964e-08
			]
		},
		{
			"children":[
				1
			],
			"name":"Bone.002",
			"rotation":[
				0.010973379015922546,
				7.151927547965897e-07,
				7.491195930242611e-08,
				0.9999397993087769
			],
			"scale":[
				1,
				0.9999999403953552,
				0.9999999403953552
			],
			"translation":[
				6.625693771411534e-09,
				0.18738941848278046,
				-3.410039539630816e-08
			]
		},
		{
			"children":[
				2
			],
			"name":"Bone.001",
			"rotation":[
				-0.675937831401825,
				2.3720133413007716e-06,
				-1.9553597212507157e-06,
				0.7369586825370789
			],
			"translation":[
				2.2351741790771484e-08,
				-0.000897526741027832,
				0.07270205020904541
			]
		},
		{
			"name":"Bone.005",
			"rotation":[
				0.02959507517516613,
				-1.4461539521448685e-08,
				-0.5460963845252991,
				0.8371994495391846
			],
			"scale":[
				0.9999999403953552,
				0.9999999403953552,
				0.9999998807907104
			],
			"translation":[
				1.50447405644627e-08,
				0.03812040016055107,
				-7.28759914636612e-08
			]
		},
		{
			"children":[
				4
			],
			"name":"Bone.004",
			"rotation":[
				-0.5932274460792542,
				0.3989247679710388,
				0.42795294523239136,
				0.5529887080192566
			],
			"translation":[
				2.2351741790771484e-08,
				-0.000897526741027832,
				0.07270205020904541
			]
		},
		{
			"name":"Bone.007",
			"rotation":[
				0.22648677229881287,
				-0.4499067962169647,
				0.49779704213142395,
				0.7060352563858032
			],
			"translation":[
				-1.6763806343078613e-08,
				0.038120489567518234,
				-5.587935447692871e-09
			]
		},
		{
			"children":[
				6
			],
			"name":"Bone.006",
			"rotation":[
				-0.5488714575767517,
				-0.34334638714790344,
				-0.4835313558578491,
				0.5891101956367493
			],
			"translation":[
				2.2351741790771484e-08,
				-0.000897526741027832,
				0.07270205020904541
			]
		},
		{
			"mesh":0,
			"name":"ClownFish",
			"skin":0
		},
		{
			"children":[
				8,
				0,
				3,
				5,
				7
			],
			"name":"ClownFishArmature",
			"translation":[
				0.062024712562561035,
				0.8748117089271545,
				0.15972518920898438
			]
		}
	],
	"animations":[
		{
			"channels":[
				{
					"sampler":0,
					"target":{
						"node":0,
						"path":"translation"
					}
				},
				{
					"sampler":1,
					"target":{
						"node":0,
						"path":"rotation"
					}
				},
				{
					"sampler":2,
					"target":{
						"node":0,
						"path":"scale"
					}
				},
				{
					"sampler":3,
					"target":{
						"node":3,
						"path":"translation"
					}
				},
				{
					"sampler":4,
					"target":{
						"node":3,
						"path":"rotation"
					}
				},
				{
					"sampler":5,
					"target":{
						"node":3,
						"path":"scale"
					}
				},
				{
					"sampler":6,
					"target":{
						"node":2,
						"path":"translation"
					}
				},
				{
					"sampler":7,
					"target":{
						"node":2,
						"path":"rotation"
					}
				},
				{
					"sampler":8,
					"target":{
						"node":2,
						"path":"scale"
					}
				},
				{
					"sampler":9,
					"target":{
						"node":1,
						"path":"translation"
					}
				},
				{
					"sampler":10,
					"target":{
						"node":1,
						"path":"rotation"
					}
				},
				{
					"sampler":11,
					"target":{
						"node":1,
						"path":"scale"
					}
				},
				{
					"sampler":12,
					"target":{
						"node":5,
						"path":"translation"
					}
				},
				{
					"sampler":13,
					"target":{
						"node":5,
						"path":"rotation"
					}
				},
				{
					"sampler":14,
					"target":{
						"node":5,
						"path":"scale"
					}
				},
				{
					"sampler":15,
					"target":{
						"node":4,
						"path":"translation"
					}
				},
				{
					"sampler":16,
					"target":{
						"node":4,
						"path":"rotation"
					}
				},
				{
					"sampler":17,
					"target":{
						"node":4,
						"path":"scale"
					}
				},
				{
					"sampler":18,
					"target":{
						"node":7,
						"path":"translation"
					}
				},
				{
					"sampler":19,
					"target":{
						"node":7,
						"path":"rotation"
					}
				},
				{
					"sampler":20,
					"target":{
						"node":7,
						"path":"scale"
					}
				},
				{
					"sampler":21,
					"target":{
						"node":6,
						"path":"translation"
					}
				},
				{
					"sampler":22,
					"target":{
						"node":6,
						"path":"rotation"
					}
				},
				{
					"sampler":23,
					"target":{
						"node":6,
						"path":"scale"
					}
				}
			],
			"name":"ClownFish",
			"samplers":[
				{
					"input":19,
					"interpolation":"STEP",
					"output":20
				},
				{
					"input":21,
					"interpolation":"LINEAR",
					"output":22
				},
				{
					"input":19,
					"interpolation":"STEP",
					"output":23
				},
				{
					"input":19,
					"interpolation":"STEP",
					"output":24
				},
				{
					"input":21,
					"interpolation":"LINEAR",
					"output":25
				},
				{
					"input":19,
					"interpolation":"STEP",
					"output":26
				},
				{
					"input":19,
					"interpolation":"STEP",
					"output":27
				},
				{
					"input":21,
					"interpolation":"LINEAR",
					"output":28
				},
				{
					"input":19,
					"interpolation":"STEP",
					"output":29
				},
				{
					"input":19,
					"interpolation":"STEP",
					"output":30
				},
				{
					"input":21,
					"interpolation":"LINEAR",
					"output":31
				},
				{
					"input":19,
					"interpolation":"STEP",
					"output":32
				},
				{
					"input":19,
					"interpolation":"STEP",
					"output":33
				},
				{
					"input":21,
					"interpolation":"LINEAR",
					"output":34
				},
				{
					"input":19,
					"interpolation":"STEP",
					"output":35
				},
				{
					"input":19,
					"interpolation":"STEP",
					"output":36
				},
				{
					"input":21,
					"interpolation":"LINEAR",
					"output":37
				},
				{
					"input":19,
					"interpolation":"STEP",
					"output":38
				},
				{
					"input":19,
					"interpolation":"STEP",
					"output":39
				},
				{
					"input":21,
					"interpolation":"LINEAR",
					"output":40
				},
				{
					"input":19,
					"interpolation":"STEP",
					"output":41
				},
				{
					"input":19,
					"interpolation":"STEP",
					"output":42
				},
				{
					"input":21,
					"interpolation":"LINEAR",
					"output":43
				},
				{
					"input":19,
					"interpolation":"STEP",
					"output":44
				}
			]
		}
	],
	"materials":[
		{
			"doubleSided":true,
			"name":"ClownFishOrange",
			"pbrMetallicRoughness":{
				"baseColorFactor":[
					0.9251072406768799,
					0.07707404345273972,
					0,
					1
				],
				"metallicFactor":0,
				"roughnessFactor":0.7454545497894287
			}
		},
		{
			"doubleSided":true,
			"extensions":{
				"KHR_materials_specular":{
					"specularFactor":0
				},
				"KHR_materials_ior":{
					"ior":1.4500000476837158
				}
			},
			"name":"ClownFishWhite",
			"pbrMetallicRoughness":{
				"metallicFactor":0,
				"roughnessFactor":0.7409090995788574
			}
		},
		{
			"doubleSided":true,
			"name":"ClownFishBlack",
			"pbrMetallicRoughness":{
				"baseColorFactor":[
					0.036859992891550064,
					0.036859992891550064,
					0.036859992891550064,
					1
				],
				"metallicFactor":0,
				"roughnessFactor":0.7545454502105713
			}
		}
	],
	"meshes":[
		{
			"name":"ClownFishMesh",
			"primitives":[
				{
					"attributes":{
						"POSITION":0,
						"NORMAL":1,
						"TEXCOORD_0":2,
						"JOINTS_0":3,
						"WEIGHTS_0":4
					},
					"indices":5,
					"material":0
				},
				{
					"attributes":{
						"POSITION":6,
						"NORMAL":7,
						"TEXCOORD_0":8,
						"JOINTS_0":9,
						"WEIGHTS_0":10
					},
					"indices":11,
					"material":1
				},
				{
					"attributes":{
						"POSITION":12,
						"NORMAL":13,
						"TEXCOORD_0":14,
						"JOINTS_0":15,
						"WEIGHTS_0":16
					},
					"indices":17,
					"material":2
				}
			]
		}
	],
	"skins":[
		{
			"inverseBindMatrices":18,
			"joints":[
				0,
				3,
				2,
				1,
				5,
				4,
				7,
				6
			],
			"name":"ClownFishArmature"
		}
	],
	"accessors":[
		{
			"bufferView":0,
			"componentType":5126,
			"count":1271,
			"max":[
				0.10997620224952698,
				1.0711445808410645,
				0.411471962928772
			],
			"min":[
				0.014073263853788376,
				0.7339754700660706,
				-0.1960691213607788
			],
			"type":"VEC3"
		},
		{
			"bufferView":1,
			"componentType":5126,
			"count":1271,
			"type":"VEC3"
		},
		{
			"bufferView":2,
			"componentType":5126,
			"count":1271,
			"type":"VEC2"
		},
		{
			"bufferView":3,
			"componentType":5121,
			"count":1271,
			"type":"VEC4"
		},
		{
			"bufferView":4,
			"componentType":5126,
			"count":1271,
			"type":"VEC4"
		},
		{
			"bufferView":5,
			"componentType":5123,
			"count":2046,
			"type":"SCALAR"
		},
		{
			"bufferView":6,
			"componentType":5126,
			"count":184,
			"max":[
				0.09596243500709534,
				1.0167773962020874,
				0.34800201654434204
			],
			"min":[
				0.02808697149157524,
				0.8040673136711121,
				-0.07117077708244324
			],
			"type":"VEC3"
		},
		{
			"bufferView":7,
			"componentType":5126,
			"count":184,
			"type":"VEC3"
		},
		{
			"bufferView":8,
			"componentType":5126,
			"count":184,
			"type":"VEC2"
		},
		{
			"bufferView":9,
			"componentType":5121,
			"count":184,
			"type":"VEC4"
		},
		{
			"bufferView":10,
			"componentType":5126,
			"count":184,
			"type":"VEC4"
		},
		{
			"bufferView":11,
			"componentType":5123,
			"count":276,
			"type":"SCALAR"
		},
		{
			"bufferView":12,
			"componentType":5126,
			"count":252,
			"max":[
				0.10997620224952698,
				1.0325045585632324,
				0.21981486678123474
			],
			"min":[
				0.014073263853788376,
				0.7339754700660706,
				-0.1960691213607788
			],
			"type":"VEC3"
		},
		{
			"bufferView":13,
			"componentType":5126,
			"count":252,
			"type":"VEC3"
		},
		{
			"bufferView":14,
			"componentType":5126,
			"count":252,
			"type":"VEC2"
		},
		{
			"bufferView":15,
			"componentType":5121,
			"count":252,
			"type":"VEC4"
		},
		{
			"bufferView":16,
			"componentType":5126,
			"count":252,
			"type":"VEC4"
		},
		{
			"bufferView":17,
			"componentType":5123,
			"count":348,
			"type":"SCALAR"
		},
		{
			"bufferView":18,
			"componentType":5126,
			"count":8,
			"type":"MAT4"
		},
		{
			"bufferView":19,
			"componentType":5126,
			"count":2,
			"max":[
				1.6666666666666667
			],
			"min":[
				0
			],
			"type":"SCALAR"
		},
		{
			"bufferView":20,
			"componentType":5126,
			"count":2,
			"type":"VEC3"
		},
		{
			"bufferView":21,
			"componentType":5126,
			"count":41,
			"max":[
				1.6666666666666667
			],
			"min":[
				0
			],
			"type":"SCALAR"
		},
		{
			"bufferView":22,
			"componentType":5126,
			"count":41,
			"type":"VEC4"
		},
		{
			"bufferView":23,
			"componentType":5126,
			"count":2,
			"type":"VEC3"
		},
		{
			"bufferView":24,
			"componentType":5126,
			"count":2,
			"type":"VEC3"
		},
		{
			"bufferView":25,
			"componentType":5126,
			"count":41,
			"type":"VEC4"
		},
		{
			"bufferView":26,
			"componentType":5126,
			"count":2,
			"type":"VEC3"
		},
		{
			"bufferView":27,
			"componentType":5126,
			"count":2,
			"type":"VEC3"
		},
		{
			"bufferView":28,
			"componentType":5126,
			"count":41,
			"type":"VEC4"
		},
		{
			"bufferView":29,
			"componentType":5126,
			"count":2,
			"type":"VEC3"
		},
		{
			"bufferView":30,
			"componentType":5126,
			"count":2,
			"type":"VEC3"
		},
		{
			"bufferView":31,
			"componentType":5126,
			"count":41,
			"type":"VEC4"
		},
		{
			"bufferView":32,
			"componentType":5126,
			"count":2,
			"type":"VEC3"
		},
		{
			"bufferView":33,
			"componentType":5126,
			"count":2,
			"type":"VEC3"
		},
		{
			"bufferView":34,
			"componentType":5126,
			"count":41,
			"type":"VEC4"
		},
		{
			"bufferView":35,
			"componentType":5126,
			"count":2,
			"type":"VEC3"
		},
		{
			"bufferView":36,
			"componentType":5126,
			"count":2,
			"type":"VEC3"
		},
		{
			"bufferView":37,
			"componentType":5126,
			"count":41,
			"type":"VEC4"
		},
		{
			"bufferView":38,
			"componentType":5126,
			"count":2,
			"type":"VEC3"
		},
		{
			"bufferView":39,
			"componentType":5126,
			"count":2,
			"type":"VEC3"
		},
		{
			"bufferView":40,
			"componentType":5126,
			"count":41,
			"type":"VEC4"
		},
		{
			"bufferView":41,
			"componentType":5126,
			"count":2,
			"type":"VEC3"
		},
		{
			"bufferView":42,
			"componentType":5126,
			"count":2,
			"type":"VEC3"
		},
		{
			"bufferView":43,
			"componentType":5126,
			"count":41,
			"type":"VEC4"
		},
		{
			"bufferView":44,
			"componentType":5126,
			"count":2,
			"type":"VEC3"
		}
	],
	"bufferViews":[
		{
			"buffer":0,
			"byteLength":15252,
			"byteOffset":0,
			"target":34962
		},
		{
			"buffer":0,
			"byteLength":15252,
			"byteOffset":15252,
			"target":34962
		},
		{
			"buffer":0,
			"byteLength":10168,
			"byteOffset":30504,
			"target":34962
		},
		{
			"buffer":0,
			"byteLength":5084,
			"byteOffset":40672,
			"target":34962
		},
		{
			"buffer":0,
			"byteLength":20336,
			"byteOffset":45756,
			"target":34962
		},
		{
			"buffer":0,
			"byteLength":4092,
			"byteOffset":66092,
			"target":34963
		},
		{
			"buffer":0,
			"byteLength":2208,
			"byteOffset":70184,
			"target":34962
		},
		{
			"buffer":0,
			"byteLength":2208,
			"byteOffset":72392,
			"target":34962
		},
		{
			"buffer":0,
			"byteLength":1472,
			"byteOffset":74600,
			"target":34962
		},
		{
			"buffer":0,
			"byteLength":736,
			"byteOffset":76072,
			"target":34962
		},
		{
			"buffer":0,
			"byteLength":2944,
			"byteOffset":76808,
			"target":34962
		},
		{
			"buffer":0,
			"byteLength":552,
			"byteOffset":79752,
			"target":34963
		},
		{
			"buffer":0,
			"byteLength":3024,
			"byteOffset":80304,
			"target":34962
		},
		{
			"buffer":0,
			"byteLength":3024,
			"byteOffset":83328,
			"target":34962
		},
		{
			"buffer":0,
			"byteLength":2016,
			"byteOffset":86352,
			"target":34962
		},
		{
			"buffer":0,
			"byteLength":1008,
			"byteOffset":88368,
			"target":34962
		},
		{
			"buffer":0,
			"byteLength":4032,
			"byteOffset":89376,
			"target":34962
		},
		{
			"buffer":0,
			"byteLength":696,
			"byteOffset":93408,
			"target":34963
		},
		{
			"buffer":0,
			"byteLength":512,
			"byteOffset":94104
		},
		{
			"buffer":0,
			"byteLength":8,
			"byteOffset":94616
		},
		{
			"buffer":0,
			"byteLength":24,
			"byteOffset":94624
		},
		{
			"buffer":0,
			"byteLength":164,
			"byteOffset":94648
		},
		{
			"buffer":0,
			"byteLength":656,
			"byteOffset":94812
		},
		{
			"buffer":0,
			"byteLength":24,
			"byteOffset":95468
		},
		{
			"buffer":0,
			"byteLength":24,
			"byteOffset":95492
		},
		{
			"buffer":0,
			"byteLength":656,
			"byteOffset":95516
		},
		{
			"buffer":0,
			"byteLength":24,
			"byteOffset":96172
		},
		{
			"buffer":0,
			"byteLength":24,
			"byteOffset":96196
		},
		{
			"buffer":0,
			"byteLength":656,
			"byteOffset":96220
		},
		{
			"buffer":0,
			"byteLength":24,
			"byteOffset":96876
		},
		{
			"buffer":0,
			"byteLength":24,
			"byteOffset":96900
		},
		{
			"buffer":0,
			"byteLength":656,
			"byteOffset":96924
		},
		{
			"buffer":0,
			"byteLength":24,
			"byteOffset":97580
		},
		{
			"buffer":0,
			"byteLength":24,
			"byteOffset":97604
		},
		{
			"buffer":0,
			"byteLength":656,
			"byteOffset":97628
		},
		{
			"buffer":0,
			"byteLength":24,
			"byteOffset":98284
		},
		{
			"buffer":0,
			"byteLength":24,
			"byteOffset":98308
		},
		{
			"buffer":0,
			"byteLength":656,
			"byteOffset":98332
		},
		{
			"buffer":0,
			"byteLength":24,
			"byteOffset":98988
		},
		{
			"buffer":0,
			"byteLength":24,
			"byteOffset":99012
		},
		{
			"buffer":0,
			"byteLength":656,
			"byteOffset":99036
		},
		{
			"buffer":0,
			"byteLength":24,
			"byteOffset":99692
		},
		{
			"buffer":0,
			"byteLength":24,
			"byteOffset":99716
		},
		{
			"buffer":0,
			"byteLength":656,
			"byteOffset":99740
		},
		{
			"buffer":0,
			"byteLength":24,
			"byteOffset":100396
		}
	],
	"buffers":[
		{
			"byteLength":100420,
			"uri":"ClownFish.bin"
		}
	]
}
